<svg width="55" height="52" xmlns="http://www.w3.org/2000/svg" xmlns:xlink="http://www.w3.org/1999/xlink"><defs><path id="a" d="M0 0h44v43H0z"/></defs><g fill="none" fill-rule="evenodd"><g fill="#231F20"><path d="m43.146 28.24.044.001c.186-.005 4.59-.195 8.25-5.789 3.646-5.571 1.918-12.587 1.843-12.883a.322.322 0 1 0-.624.159c.018.07 1.73 7.041-1.757 12.371-3.478 5.315-7.688 5.497-7.73 5.498a.322.322 0 0 0-.026.642"/><path d="M53.064 9.882a.255.255 0 0 0 .241-.392L52.06 7.57a.255.255 0 1 0-.427.278l1.244 1.92a.254.254 0 0 0 .186.114"/><path d="M53.063 9.882h.012a.255.255 0 0 0 .27-.238l.158-2.543a.255.255 0 1 0-.508-.031l-.158 2.543a.255.255 0 0 0 .226.269"/><path d="M53.064 9.882a.253.253 0 0 0 .187-.055l1.654-1.332a.255.255 0 0 0-.32-.397L52.933 9.43a.255.255 0 0 0 .132.452"/><path d="M53.064 9.882a.255.255 0 0 0 .082-.502l-2.015-.443a.254.254 0 1 0-.11.498l2.016.442.027.005M.628 30.213a.306.306 0 0 0 .359-.393c-.834-2.562-.289-4.769 1.619-6.56 1.45-1.361 3.185-1.965 3.202-1.97a.306.306 0 0 0-.197-.58c-.074.026-7.385 2.601-5.205 9.3.034.105.121.18.222.203M23.578 51.182a.306.306 0 0 0 .339-.324l-.924-14.46a.305.305 0 1 0-.61.04l.923 14.46c.01.15.127.268.272.284"/><path d="M20.868 51.001a.418.418 0 0 0 .225-.038 2.742 2.742 0 0 1 1.323-.196c.617.067.83.332.832.335a.42.42 0 1 0 .71-.45c-.04-.061-.413-.606-1.45-.72a3.556 3.556 0 0 0-1.777.273.42.42 0 0 0 .137.796m6.406.585a.306.306 0 0 0 .327-.22l4.019-13.92a.306.306 0 1 0-.588-.17l-4.019 13.92a.306.306 0 0 0 .261.39"/><path d="M29.995 51.998a.418.418 0 0 1-.212-.087 2.742 2.742 0 0 0-1.25-.476c-.616-.067-.882.145-.884.147a.42.42 0 1 1-.596-.592c.051-.051.533-.503 1.571-.39a3.558 3.558 0 0 1 1.676.65.42.42 0 0 1-.305.748"/></g><path d="m45.179 15.502-.266-.863c-2.646-.514-3.6-2.349-3.6-2.349-3.508.004-4.122-3.201-4.122-3.201-3.218-1.019-2.77-4.641-2.77-4.641-.703-1.091-1.59-2.188-2.8-2.449l-1.317 6.315c.003.34.003.682-.003 1.029-.015.894-.012 1.879.071 2.863l10.495 4.7 4.312-1.404z" fill="#EA973D"/><path d="M46.312 15.216a1.05 1.05 0 0 1-.221.011 2.469 2.469 0 0 1-.685-.132c-.037-.013-.074-.028-.111-.043a1.124 1.124 0 0 1-.496-.172 1.92 1.92 0 0 1-.414-.376c-.039 0-.077.002-.116 0-1.164-.05-2.567-.95-3.552-1.492-1.363-.752-2.538-1.7-3.475-2.937-1.003-1.323-1.912-2.715-2.792-4.12-.892-1.423-1.526-2.995-2.459-4.387a1.565 1.565 0 0 1-.093-.16c-.38-.1-.766-.194-1.153-.28-1.524-.344-3.09-.875-4.718-.875-1.628 0-3.186.564-4.709.907-1.573.354-3.141.691-4.56 1.37-1.443.688-2.767 1.596-4.006 2.575-1.245.985-2.513 2-3.507 3.232-.99 1.227-1.891 2.588-2.588 4.017a21.21 21.21 0 0 0-1.594 4.498c-.347 1.509-.606 3.126-.606 4.739 0 1.612.376 3.203.723 4.712.357 1.557.763 3.133 1.448 4.538.696 1.429 1.958 2.514 2.948 3.74.994 1.233 2.057 2.353 3.303 3.337 1.239.98 2.43 2.055 3.873 2.744 1.42.678 2.908 1.373 4.481 1.727 1.524.343 3.166.173 4.794.173 1.629 0 3.224-.034 4.748-.377 1.573-.354 2.95-1.171 4.368-1.849 1.443-.69 3.03-1.146 4.27-2.126 1.244-.984 2.026-2.432 3.02-3.665.99-1.227 1.946-2.443 2.641-3.872.685-1.405 1.445-2.812 1.803-4.37.346-1.509.73-3.1.73-4.712 0-1.613-.351-3.212-.698-4.72a8.168 8.168 0 0 0-.597-1.655" fill="#EA973D"/><path d="M41.995 14.751c-.568-.342-1.11-.726-1.71-.846-.749-.15-1.33-.051-2.054-.444-.551-.299-1.008-.758-1.374-1.256-.403-.546-.675-1.169-.744-1.803-2.293-.063-3.52-1.913-3.545-4.023-.1-.63.17-1.253-.057-1.852-.18-.476-.597-.971-.974-1.308-.79-.708-1.841-1.08-2.86-1.329-.868-.211-1.751-.394-2.649-.394-1.46 0-2.858.506-4.225.814-1.41.318-2.817.62-4.09 1.228-1.294.618-2.482 1.432-3.594 2.311-1.117.883-2.254 1.793-3.146 2.9-.888 1.1-1.696 2.32-2.32 3.602a19.022 19.022 0 0 0-1.431 4.035c-.31 1.354-.544 2.804-.544 4.25 0 1.064.065 4.845 1.627 4.985.162.014.331-.004.482.056.141.057.246.176.345.29a30.988 30.988 0 0 1 2.129 2.784c.145.213.29.436.338.688.049.253-.023.546-.238.69-.125.083-.28.108-.415.174-.383.19-.294.818-.191 1.23.324 1.296 2.059 2.588 3.114 3.319.524.362 1.027.751 1.658.901.58.138 1.217.003 1.751.327.419.253.644.725.992 1.067.294.289.67.479 1.039.665l3.37 1.696c1.412.711 4.266.153 5.466-.831.306-.252.653-.563 1.042-.478.274.06.46.302.678.478.31.25 1.296.283 1.69.244.955-.095 1.558-1.03 2.016-1.865.36.307 1.013.138 1.175-.304.066-.18.06-.38.14-.555.059-.131.204-.241.338-.239a.377.377 0 0 1 .09-.126c.883-.83 2.351-.476 3.461-.97 1.162-.515 1.644-1.773 2.228-2.8.646-1.136 1.533-2.091 2.11-3.278.445-.91.971-1.755.908-2.814-.045-.743-.57-1.328-.56-2.039.013-.882.038-1.81.499-2.565.184-.303.432-.564.618-.865.044-.072.085-.144.123-.217.613-1.199.346-2.632.059-3.88a6.303 6.303 0 0 0-.268-.858c-.846.096-1.745-.263-2.497-.795z" fill="#F7B657"/><path d="M30.26 2.885a.518.518 0 0 0 .044-.219c-.024-.924-3.591-1.17-4.276-1.17-1.46 0-2.858.506-4.225.814-1.41.318-2.817.62-4.09 1.228-1.294.618-2.482 1.432-3.594 2.311-1.117.883-2.254 1.793-3.146 2.9-1.485 1.841-2.93 4.028-3.47 6.365a7.598 7.598 0 0 0-.049.22c-.093.461.27.423.54.164.45-.428.695-1.477 1.005-2.027.828-1.473 1.584-2.907 2.863-4.045.574-.51 1.177-.987 1.78-1.464 1.222-.966 2.528-1.86 3.95-2.54 1.4-.669 2.947-1.002 4.498-1.35 1.502-.339 3.039-.896 4.645-.896.852 0 1.698.233 2.547.196.231-.01.468-.042.669-.155a.726.726 0 0 0 .309-.332" fill="#FFD880"/><g transform="translate(4)"><mask id="b" fill="#fff"><use xlink:href="#a"/></mask><path d="M28.227 2.496c-.046-.041-.099-.08-.166-.13a4.604 4.604 0 0 0-.764-.43 6.384 6.384 0 0 0-.613-.242 3.467 3.467 0 0 0-.347-.1l-.432-.097c-.598-.134-1.276-.293-2.034-.421a11.435 11.435 0 0 0-2.503-.172c-.904.038-1.884.22-2.945.467-1.065.256-2.218.484-3.373.808a13.69 13.69 0 0 0-1.726.6 8.489 8.489 0 0 0-.422.192 15.862 15.862 0 0 0-1.277.691c-1.13.673-2.23 1.503-3.339 2.418-.55.454-1.082.931-1.575 1.46-.246.263-.484.54-.716.827l-.19.226-.21.23c-.14.146-.28.286-.42.423-.566.543-1.112 1.048-1.537 1.646a5.621 5.621 0 0 0-.555.947c-.082.166-.144.34-.215.515l-.2.56a40.556 40.556 0 0 0-1.293 4.688 22.748 22.748 0 0 0-.382 2.447c-.04.412-.066.826-.075 1.241l-.004.305.005.32c.007.2.018.405.035.613.069.828.22 1.662.4 2.504.186.841.376 1.699.592 2.534.216.838.468 1.665.796 2.455.081.199.17.393.26.586l.031.063.038.074.077.148.15.26c.219.355.474.696.75 1.03.549.667 1.18 1.302 1.766 2.013a24.59 24.59 0 0 0 1.75 1.98c.31.311.628.612.958.9.328.288.67.555 1.025.842.7.567 1.379 1.132 2.095 1.621a9.97 9.97 0 0 0 1.104.662c.38.19.796.384 1.191.568.8.37 1.605.708 2.425.967.411.129.82.24 1.242.32.394.073.827.115 1.248.135.852.04 1.718 0 2.593-.015.885-.01 1.73.003 2.577-.039.842-.038 1.67-.12 2.47-.284 1.597-.335 3.113-.987 4.568-1.666 1.469-.7 2.921-1.308 4.081-2.236 1.146-.899 1.887-2.203 2.785-3.37.459-.584.898-1.12 1.31-1.676.41-.552.784-1.107 1.108-1.672.165-.283.306-.563.45-.858l.429-.873c.28-.572.542-1.13.763-1.683a10.95 10.95 0 0 0 .52-1.639c.13-.563.255-1.107.361-1.632.214-1.05.346-2.036.346-2.941a9.026 9.026 0 0 0-.336-2.457l-.276-1.076-.061-.253-.06-.231a6.534 6.534 0 0 0-.13-.419 5.568 5.568 0 0 0-.628-1.285 3.275 3.275 0 0 0-.554-.638c-.07-.063-.126-.102-.163-.13l-.056-.041-.028-.021a.417.417 0 0 1-.085-.589.427.427 0 0 1 .594-.084l.078.058c.051.038.13.094.22.178.188.163.44.427.694.807.252.38.507.873.713 1.481.052.152.1.31.146.483.02.082.04.166.062.25l.056.246c.083.337.17.694.264 1.071.094.383.187.8.25 1.248.028.223.054.453.066.687.009.117.011.238.016.36l.005.356c-.002.976-.145 2.015-.367 3.092-.11.54-.238 1.089-.368 1.65a11.732 11.732 0 0 1-.56 1.752c-.233.58-.505 1.156-.79 1.733l-.43.872c-.144.294-.302.606-.475.901-.683 1.196-1.59 2.313-2.481 3.427-.432.559-.84 1.17-1.3 1.777-.456.603-.98 1.22-1.624 1.72-.63.494-1.327.91-2.043 1.28-.719.371-1.446.699-2.176 1.051-1.476.694-3.025 1.375-4.735 1.741-1.707.36-3.474.343-5.19.358-.86.017-1.742.063-2.646.024-.455-.02-.9-.06-1.374-.145a11.8 11.8 0 0 1-1.325-.337 21.536 21.536 0 0 1-2.524-.995c-.413-.19-.806-.372-1.225-.58-.417-.21-.815-.451-1.196-.71-.762-.516-1.461-1.096-2.155-1.654-.342-.275-.708-.557-1.053-.86a18.98 18.98 0 0 1-1.005-.936 25.482 25.482 0 0 1-1.812-2.032c-.552-.668-1.186-1.301-1.773-2.007a10.016 10.016 0 0 1-.823-1.126l-.184-.314-.076-.148-.039-.074-.042-.086a12.41 12.41 0 0 1-.282-.626 19.447 19.447 0 0 1-.845-2.567 74.245 74.245 0 0 1-.609-2.57c-.187-.857-.35-1.729-.426-2.615-.02-.22-.033-.443-.04-.672L0 21.608l.002-.336c.009-.44.035-.876.075-1.308.08-.865.217-1.715.387-2.546.348-1.66.78-3.26 1.307-4.807l.203-.576c.078-.196.15-.399.244-.59.176-.39.396-.76.644-1.101.494-.69 1.106-1.248 1.649-1.77.135-.13.267-.262.391-.392l.177-.19.177-.21c.245-.303.499-.597.763-.878a17.407 17.407 0 0 1 1.666-1.539c1.128-.927 2.272-1.79 3.46-2.492a18.71 18.71 0 0 1 1.346-.725c.156-.074.308-.146.464-.211a14.767 14.767 0 0 1 1.842-.637c1.215-.337 2.355-.558 3.42-.812 1.075-.247 2.12-.448 3.117-.479.985-.041 1.898.065 2.688.205.795.141 1.484.31 2.078.448l.43.1c.16.037.3.081.431.126.263.089.492.185.696.278.408.188.708.375.905.518.107.08.184.141.22.174l.063.054a.418.418 0 0 1 .044.594.429.429 0 0 1-.598.044l-.064-.054z" fill="#AA5900" mask="url(#b)"/></g><path d="M7.042 17.285c-.39.94-.553 2.22-.312 3.437.206 1.044.918.439.875-.08-.09-1.078.084-2.183.113-3.264.008-.292-.428-.689-.676-.093m13.405 6.495c-.273.202-.555.197-.895.16-.277-.032-.47.347-.265.544.443.424.893.426 1.47.243 1.076-.343 1.537-2.321-.31-.948" fill="#FFD880"/><path d="M11.785 26.404a12.68 12.68 0 0 1-.352-.342l-.214-.224c-.45-.477-.96-1.018-1.676-1.094-.983-.107-1.802.775-1.998 1.65l-.01.042A3.585 3.585 0 0 0 8.78 29.95c.439.353 1.06.528 1.697.528.664 0 1.344-.19 1.851-.57.705-.528.9-1.312.536-2.153-.237-.548-.665-.955-1.079-1.35" fill="#EA973D"/><path d="M13.09 14.48c-.084-.533-.5-1.034-1.06-1.276a1.455 1.455 0 0 0-.635-.132c-.788.033-1.204.845-1.48 1.55-.12.304-.253.755-.041 1.143.162.298.49.485.907.527.096.01.198.012.304.006a2.599 2.599 0 0 0 1.536-.623c.372-.32.538-.745.468-1.194" fill="#E08C38"/><path d="M31.201 35.873c-1.992.394-3.095 2.079-2.876 3.404.128.775.592 1.09.96 1.219 1.075.374 2.674-.334 3.633-1.189.73-.65 1.055-1.329.916-1.91-.288-1.205-1.298-1.789-2.633-1.524m5.901-1.452a1.771 1.771 0 0 0-1.477-.07c-.668.28-1.114.79-1.225 1.398-.112.618.24 1.327.838 1.688.267.16.553.24.842.24.382 0 .771-.138 1.133-.413.565-.43.685-1.333.557-1.99-.07-.36-.307-.662-.668-.853m8.721-13.735c-.452-.687-1.343-1.023-2.072-.783-.696.23-.808.745-.939 1.34-.086.398-.185.85-.464 1.378-.194.368-.147.96-.02 1.356.078.249.233.576.52.724.257.132.522.197.787.197.533 0 1.066-.263 1.533-.775.816-.893 1.299-2.46.655-3.437" fill="#EA973D"/><path d="M20.985 20.22c-.318-.534-.77-.913-1.274-1.067a2.36 2.36 0 0 0-.621-.094c-1.08-.029-2.163.467-2.758 1.275-.47.638-.58 1.406-.31 2.163a2.471 2.471 0 0 0 1.61 1.512c.28.081.564.111.842.111.313 0 1.771.137 2.696-.584.438-.342.569-.943.359-1.826-.119-.498-.267-1.024-.544-1.49" fill="#E08C38"/><path d="M8.042 26.049a1.54 1.54 0 0 1 .008-.04c.18-.803.907-1.55 1.734-1.462.728.078 1.231.725 1.741 1.246.5.51 1.1.965 1.382 1.619.92 2.124-2.344 3.006-3.706 1.912a3.334 3.334 0 0 1-1.16-3.275m3.819-12.872c-.634.026-1.019.678-1.322 1.451-.124.32-.218.69-.054.992.188.345.64.454 1.035.43a2.456 2.456 0 0 0 1.447-.585c.817-.705.339-1.787-.552-2.171a1.261 1.261 0 0 0-.553-.117M33.302 36.84c.417 1.74-4.593 4.452-5.034 1.786-.434-2.628 4.345-4.663 5.034-1.786m.852-1.528c-.184 1.013 1.118 2.276 2.427 1.281.474-.36.58-1.172.466-1.753-.141-.73-1.121-1.04-1.812-.749-.663.279-.996.752-1.081 1.221m-14.529 1.943c.416.215.838.55.875 1.012.035.446-.323.851-.745 1.01-1.56.583-4.442-.676-4.199-2.592.095-.75.835-1.586 1.683-1.461.925.136 1.46 1.552 2.386 2.031m22.453-15.003c.72-1.366.31-2.285 1.265-2.601.654-.216 1.416.114 1.792.686.927 1.406-.841 4.605-2.66 3.67-.456-.234-.631-1.311-.397-1.755M18.621 18.83c.19.007.38.03.56.085.49.149.884.527 1.144.964.26.438.4.933.518 1.427.132.556.191 1.25-.272 1.59-.145.106-.322.159-.496.205-.396.106-.797.192-1.203.255-.543.086-1.108.131-1.635-.023a2.239 2.239 0 0 1-1.458-1.368c-.644-1.799 1.155-3.186 2.842-3.134" fill="#683604"/><path d="M26.017 40.82c-.065-.298-.674-.666-1.134-.49-.572.217-1.04.546-1.313 1.123-.115.24.13.446.36.39.241-.06.477-.196.71-.288.231-.093.467-.177.713-.226.32-.064.739-.162.664-.508m13.894-12.303c-.145-.302-.844-.271-1.126-.125-.674.349-1.209 1.179-1.018 1.949.067.27.527.32.628.045.166-.452.469-.683.842-1.05.35-.346.813-.53.674-.819M19.17 31.835c-.403-.24-1.226-.21-1.434.287a.327.327 0 0 0 .159.426c.143.07.308.068.46.11.114.032.225.108.35.181.258.155.758.253.882.007.177-.351-.157-.856-.416-1.01m7.978-2.778c-.362-.61-1.39-.166-1.774.195-.208.196-.394.45-.445.736-.05.286.065.633.405.63.307-.002.566-.393.82-.537.27-.152.752-.085.972-.393a.54.54 0 0 0 .022-.631" fill="#EA973D"/><path d="M21.896 7.052c.26.17.46-.002.643-.222.106-.125.354-.313.511-.388.16-.075.321-.085.494-.102.272-.027.32-.413.11-.547-.559-.36-1.412-.135-1.806.363-.177.224-.178.749.048.896m4.276 23.033a.97.97 0 0 0-.367.24c-.062.062-.14.145-.19.185-.165.135-.383.216-.524.377-.144.165-.063.397.113.493.253.137.621.05.87-.057.333-.143.643-.352.702-.732.051-.33-.275-.63-.604-.506" fill="#FFD880"/><path d="M16.127 12.853c.606-.246 1.103-.693 1.542-1.088.36-.324.854-.768.967-1.376.1-.528-.116-1.023-.314-1.345-.87-1.414-2.437-1.803-3.99-.992-1.561.814-1.921 2.55-1.367 3.757.262.57.787 1.106 1.559 1.254.451.086.987.04 1.603-.21" fill="#E08C38"/><path d="M12.814 11.197c-.508-1.106-.184-2.712 1.267-3.469 1.363-.712 2.83-.492 3.694.912.219.355.362.779.286 1.189-.096.513-.508.901-.898 1.252-.45.405-.913.818-1.476 1.047-1.43.578-2.446 0-2.873-.931" fill="#683604"/><path d="M14.611 8.713a.868.868 0 0 1 .112-.023c.29-.04.582.058.875.053.527-.01 1.09-.383 1.602-.145-.312-.39-.735-.69-1.234-.785-.52-.1-1.1.007-1.676.308-1.201.626-1.488 1.946-1.077 2.871-.347-.78.618-2.067 1.398-2.279M8.72 26.227c.074.02.153.004.229-.01.235-.044.485-.059.71.022.215.076.39.231.582.353.31.196.677.305 1.045.312.062 0 .129-.002.178-.04.091-.07.071-.21.03-.317-.214-.554-1.146-1.453-1.763-1.519a.73.73 0 0 0-.081-.004c-.391 0-.99.433-1.101.817-.044.149.018.34.17.386m2.468-11.532c.108.018.234-.057.347-.1.189-.072.399-.048.6-.035 1.128.072.65-.853-.175-.937a.57.57 0 0 0-.08-.003c-.336.014-.683.5-.815.778-.042.088-.032.207.046.265.025.018.05.028.077.032m18.401 22.267a.349.349 0 0 0 .052.034c.201.109.45.06.665-.02.214-.08.423-.191.652-.2.227-.01.444.083.662.148.955.285 1.177-.787.2-.978-.726-.142-1.761.124-2.255.687a.281.281 0 0 0-.07.12c-.018.08.029.156.094.209m5.837-2.429c-.18.075-.411.148-.528.315-.072.103-.084.257.006.344.041.04.098.061.154.077.334.096.704.066 1.017-.083.149-.071.296-.184.323-.345.075-.448-.742-.405-.972-.308M16.37 36.658a.843.843 0 0 0 .394-.048c.168-.053.343-.122.518-.09.164.031.347.146.48.045.063-.048.087-.13.09-.209.016-.346-.35-.667-.676-.716a.74.74 0 0 0-.162-.006c-.291.022-1.302.681-.766.981a.39.39 0 0 0 .122.043m26.384-13.564c.347-.657.346-2.099 1.258-2.163.134-.01.271 0 .399-.04.776-.245-.273-.826-.646-.826a.854.854 0 0 0-.268.042c-.28.092-.33.216-.458.808-.092.42-.207.944-.531 1.56-.058.11-.082.46.028.805.065.204.142.288.162.301l.01.005c-.02-.225.005-.414.046-.492M16.6 20.825c.122-.113.257-.2.39-.243.23-.075.483-.043.719-.097.314-.073.57-.291.833-.476.346-.242.795-.429 1.182-.184a1.469 1.469 0 0 0-.678-.474 1.678 1.678 0 0 0-.516-.065c-.832 0-1.683.41-2.118 1.018a1.567 1.567 0 0 0-.251 1.333c.015-.273.201-.591.44-.812" fill="#C16D1A"/><path d="M11.34 20.2c-.4.007-.743.265-.743.635 0-.121-.009.034-.01.048a3.104 3.104 0 0 0-.009.22c0 .086.003.17.014.256.027.21.09.4.208.578.145.218.472.11.52-.122.03-.145.052-.293.092-.436l.002-.01.007-.017c.014-.036.028-.073.044-.108l.04-.086a.39.39 0 0 0 .01-.02c.005-.004.017-.007.027-.025.403-.723.152-.917-.201-.912" fill="#FFD880"/><path d="M39.14 4.732c.641-.54 1.074-1.343 1.63-1.956-.939-.669-2.136-1.178-2.366-1.052-.326.179-.63.925-.533 1.845.213.32.8.93 1.27 1.163" fill="#F7B657"/><path d="M41.497 3.614c-.043-.262-.332-.557-.726-.838-.557.613-.99 1.417-1.63 1.956.57.285 1.117.47 1.117.47s1.385-.699 1.24-1.588" fill="#EA973D"/><path d="M38.291 2.327c.09-.202.32-.3.532-.232a6.882 6.882 0 0 1 1.366.645c.151.092.2.29.105.438a5.665 5.665 0 0 1-.812.982.322.322 0 0 1-.413.03 6.886 6.886 0 0 1-.73-.587c-.058-.055-.166-.2-.176-.29-.045-.43.027-.76.128-.986m2.803 1.093c.06.082.096.151.105.206.077.469-.554.952-.828 1.138a.412.412 0 0 1-.383.04l-.011-.004a.217.217 0 0 1-.073-.353c.257-.261.562-.61.824-1.018a.223.223 0 0 1 .366-.009m-3.296.632c.482.46 1.447 1.155 1.97 1.362a1.116 1.116 0 0 0 1.039-.112c.78-.528 1.156-1.148 1.058-1.747-.131-.8-1.438-1.508-1.994-1.776-1.244-.599-1.547-.432-1.647-.378-.436.24-.856.961-.748 1.983.028.258.142.495.322.668" fill="#AA5900"/><path d="M45.226 9.658c.458-.03.848-.014.81-.821-.047-1.025-.614-2.193-1.29-2.15-.41.143-.885.672-.95 1.08-.063.385.064.743.256 1.193.185.436.664.732 1.174.698" fill="#F7B657"/><path d="M44.626 7.006a.307.307 0 0 1 .386.01c.365.323.666 1.11.7 1.829.019.427.019.427-.418.454l-.074.005c-.365.024-.728-.189-.864-.507-.205-.482-.3-.78-.252-1.077.034-.218.273-.528.522-.714zm.3 3.024c.107.015.216.02.326.012l.065-.004c.405-.026 1.16-.073 1.108-1.219-.04-.869-.409-1.778-.897-2.21-.247-.218-.526-.323-.807-.305a.39.39 0 0 0-.103.02c-.556.193-1.12.84-1.207 1.382-.08.497.08.93.283 1.404a1.58 1.58 0 0 0 1.232.92z" fill="#AA5900"/><path d="M46.41 3.258c.296-.47-.137-1.393-.792-1.717-.303-.15-.385-.128-.585.19-.224.355-.25 1.008 0 1.253.54.53 1.127.517 1.377.274" fill="#F7B657"/><path d="M45.296 1.852c.025-.04.099-.076.122-.065.327.162.63.539.738.918a.849.849 0 0 1 .037.303.14.14 0 0 1-.12.124c-.185.03-.501-.041-.837-.37-.1-.098-.128-.612.06-.91zm-.523 1.392c.321.315.674.48.998.525.361.051.688-.046.898-.25a.36.36 0 0 0 .054-.068c.163-.26.195-.605.09-.975-.153-.533-.557-1.028-1.03-1.262-.478-.236-.766-.148-1.064.323-.298.473-.34 1.321.054 1.707zm-.203 12.047c-1.158.07-2.52-.356-3.257-1.253a.523.523 0 0 1-.09-.489l.025-.083a.212.212 0 0 1 .351-.089c.604.59 1.567 1.273 2.994 1.621a.148.148 0 0 1-.023.293m-3.74-2.281-.052.195a.756.756 0 0 1-.714.554c-.5.008-.992-.064-1.446-.24-1.653-.645-2.083-2.586-1.79-3.052.294-.468 1.014.787 1.376 1.1.66.573 1.481.92 2.351 1.042a.326.326 0 0 1 .275.4m-4.537-3.321-.008.01a1.01 1.01 0 0 1-1.218.287 3.375 3.375 0 0 1-.554-.337c-1.477-1.104-1.64-3.114-1.59-4.3a.303.303 0 0 1 .25-.285c.146-.028.298-.058.443-.088a.306.306 0 0 1 .369.282c.02.353.076.785.204 1.242.329 1.168 1.007 2.055 1.984 2.607.211.12.272.393.12.582m-3.74-5.574a5.205 5.205 0 0 1-.602-1.454c-.028-.11.09-.204.19-.149.535.295.999.764 1.397 1.27a.33.33 0 0 1-.198.528l-.238.047a.529.529 0 0 1-.548-.242M44.92 15.862c.697-.131 1.228-.479.643-1.28-.315-.433-.996-.432-1.465-.603a5.137 5.137 0 0 1-1.382-.753c-.393-.304-.789-.685-1.025-1.128a.426.426 0 0 0-.378-.229c-3.104.003-3.681-2.743-3.704-2.858a.423.423 0 0 0-.289-.323c-2.837-.898-2.493-4.056-2.478-4.19a.418.418 0 0 0-.063-.277c-.714-1.109-1.256-2.095-2.712-2.757-.424-.192-1.058-.56-1.14.086-.062.487.377 1.47.544 1.939.108.304.792 1.184.77 1.43-.284 3.185 1.028 4.679 1.845 5.289.49.366 1.04.614 1.62.73.235.048.42.225.47.457.25 1.16.747 2.246 2.24 2.796.731.27 1.532.343 2.332.216l.01.003a.16.16 0 0 0 .043 0c-.053-.003.676.739 1.19 1.028.503.282 1.075.426 1.65.475.334.03.84.032 1.279-.051" fill="#AA5900"/><path d="M29.878 12.285c-.273.204-.554.198-.894.16-.277-.03-.471.348-.266.545.443.424.894.426 1.47.243 1.077-.343 1.538-2.321-.31-.948" fill="#FFD880"/><path d="M30.417 8.726c-.318-.534-.77-.913-1.275-1.067a2.358 2.358 0 0 0-.62-.094c-1.08-.029-2.163.468-2.759 1.275-.47.638-.58 1.406-.31 2.163a2.472 2.472 0 0 0 1.611 1.512c.28.082.564.111.841.111.313 0 1.772.137 2.696-.584.438-.342.57-.943.36-1.825-.12-.5-.267-1.025-.544-1.49" fill="#E08C38"/><path d="M28.053 7.337c.19.006.38.029.56.084.49.15.884.527 1.144.964.26.438.4.933.518 1.427.132.556.19 1.25-.272 1.59-.145.106-.322.159-.496.205-.396.107-.798.192-1.203.256-.543.085-1.108.13-1.636-.023a2.239 2.239 0 0 1-1.458-1.37c-.643-1.797 1.155-3.185 2.843-3.133" fill="#683604"/><path d="M26.032 9.331c.121-.112.256-.2.39-.243.23-.075.482-.042.718-.097.315-.073.57-.291.834-.476.346-.242.794-.429 1.182-.184a1.469 1.469 0 0 0-.679-.474 1.678 1.678 0 0 0-.516-.065c-.832 0-1.682.41-2.117 1.018a1.567 1.567 0 0 0-.252 1.333c.016-.273.201-.59.44-.812" fill="#C16D1A"/><g fill="#231F20"><path d="M5.463 34c2.866.657 5.852.245 6.069.214a.306.306 0 0 0-.088-.605c-.088.012-8.828 1.216-10.457-3.789a.306.306 0 1 0-.581.19c.772 2.371 2.88 3.489 5.057 3.99"/><path d="M11.374 34.126a.24.24 0 0 0 .118-.003l2.093-.58a.242.242 0 0 0-.13-.466l-2.092.58a.242.242 0 0 0 .01.469"/><path d="M13.632 34.994a.242.242 0 0 0 .14-.462l-2.258-.868a.241.241 0 1 0-.173.452l2.258.868.033.01"/><path d="M12.108 36.004a.242.242 0 0 0 .279-.324l-.734-1.878a.242.242 0 1 0-.45.176l.734 1.879a.24.24 0 0 0 .171.147"/><path d="M11.374 34.126a.24.24 0 0 0 .263-.116l.976-1.7a.242.242 0 1 0-.42-.24l-.975 1.7a.242.242 0 0 0 .156.356"/></g><path d="M23.065 20.677a4.781 4.781 0 0 1-4.776 4.786 4.781 4.781 0 0 1-4.777-4.786 4.781 4.781 0 0 1 4.777-4.786 4.781 4.781 0 0 1 4.776 4.786" fill="#FFF"/><path d="M18.289 15.058a5.625 5.625 0 0 0-5.618 5.619 5.625 5.625 0 0 0 5.618 5.619 5.625 5.625 0 0 0 5.617-5.62 5.624 5.624 0 0 0-5.617-5.618m0 .833a4.781 4.781 0 0 1 4.776 4.786 4.781 4.781 0 0 1-4.776 4.786 4.781 4.781 0 0 1-4.777-4.786 4.781 4.781 0 0 1 4.777-4.786" fill="#683604"/><path d="M21.939 20.565c0 1.77-1.413 3.205-3.155 3.205-1.742 0-3.154-1.435-3.154-3.205s1.412-3.205 3.154-3.205 3.155 1.435 3.155 3.205" fill="#683604"/><path d="M19.182 19.147c-.015.546.437 1.002 1.01 1.018.571.015 1.047-.415 1.062-.962.015-.546-.436-1.002-1.008-1.018-.573-.015-1.049.415-1.064.962m9.753 1.53a4.781 4.781 0 0 0 4.776 4.786 4.781 4.781 0 0 0 4.777-4.786 4.781 4.781 0 0 0-4.777-4.786 4.781 4.781 0 0 0-4.776 4.786" fill="#FFF"/><path d="M33.711 15.058a5.625 5.625 0 0 0-5.617 5.619 5.625 5.625 0 0 0 5.617 5.619 5.625 5.625 0 0 0 5.618-5.62 5.624 5.624 0 0 0-5.618-5.618m0 .833a4.781 4.781 0 0 1 4.777 4.786 4.781 4.781 0 0 1-4.777 4.786 4.781 4.781 0 0 1-4.776-4.786 4.781 4.781 0 0 1 4.776-4.786" fill="#683604"/><path d="M30.061 20.565c0 1.77 1.413 3.205 3.155 3.205 1.742 0 3.154-1.435 3.154-3.205s-1.412-3.205-3.154-3.205-3.155 1.435-3.155 3.205" fill="#683604"/><path d="M33.262 19.147c-.015.546.437 1.002 1.01 1.018.571.015 1.047-.415 1.062-.962.015-.546-.436-1.002-1.008-1.018-.573-.015-1.049.415-1.064.962" fill="#FFF"/><path d="M25.524 29.692c-1.06 0-2.33-.098-3.65-1.182-.244-.2-.318-.537-.134-.792a.577.577 0 0 1 .8-.133c1.46 1.033 2.818.908 3.777.746 1.34-.224 2.421-.92 2.718-1.337.183-.256.572-.16.831.021s.33.65.147.906c-.477.67-1.754 1.402-3.411 1.68-.32.054-.683.09-1.078.09" fill="#683604"/><path d="M30.332 28.8c-.701-.28-1.396-.734-1.796-2.255-.08-.304.056-.753.362-.833.307-.077.66.245.748.546.335 1.158 1.206 1.53 1.216 1.535.28.145.509.481.362.76-.102.194-.497.405-.892.248" fill="#683604"/></g></svg>