<svg xmlns="http://www.w3.org/2000/svg" width="18" height="18" viewBox="0 0 18 18">
    <g fill="#231F20" fill-rule="nonzero">
        <path d="M9 .579c4.629 0 8.421 3.792 8.421 8.421S13.63 17.421 9 17.421.579 13.63.579 9 4.37.579 9 .579zM9 0C4.05 0 0 4.05 0 9s4.05 9 9 9 9-4.05 9-9-4.05-9-9-9z"/>
        <path d="M9 3.808a2.556 2.556 0 0 1 2.562 2.561C11.562 7.823 10.454 9 9 9a2.556 2.556 0 0 1-2.562-2.562c0-1.453 1.108-2.63 2.562-2.63zM9 15.715a8.25 8.25 0 0 1-4.708-1.453c-.277-.208-.484-.554-.484-.9 0-1.524 1.454-2.77 3.254-2.77H10.8c1.8 0 3.254 1.246 3.254 2.77 0 .346-.208.692-.485.9A7.978 7.978 0 0 1 9 15.715z"/>
    </g>
</svg>
